<?xml version="1.0" encoding="UTF-8" standalone="no"?>
<svg
   xmlns:dc="http://purl.org/dc/elements/1.1/"
   xmlns:cc="http://creativecommons.org/ns#"
   xmlns:rdf="http://www.w3.org/1999/02/22-rdf-syntax-ns#"
   xmlns:svg="http://www.w3.org/2000/svg"
   xmlns="http://www.w3.org/2000/svg"
   xmlns:sodipodi="http://sodipodi.sourceforge.net/DTD/sodipodi-0.dtd"
   xmlns:inkscape="http://www.inkscape.org/namespaces/inkscape"
   height="512.00003pt"
   viewBox="0 0 512.00003 512.00003"
   width="512.00003pt"
   version="1.1"
   id="svg20"
   sodipodi:docname="001-recipe-book.svg"
   inkscape:version="0.92.3 (2405546, 2018-03-11)"
   inkscape:export-filename="D:\Projects\VeletlenVacsora\Graphics\PNG\RecipeBook.png"
   inkscape:export-xdpi="9"
   inkscape:export-ydpi="9">
  <metadata
     id="metadata26">
    <rdf:RDF>
      <cc:Work
         rdf:about="">
        <dc:format>image/svg+xml</dc:format>
        <dc:type
           rdf:resource="http://purl.org/dc/dcmitype/StillImage" />
      </cc:Work>
    </rdf:RDF>
  </metadata>
  <defs
     id="defs24" />
  <sodipodi:namedview
     pagecolor="#ffffff"
     bordercolor="#666666"
     borderopacity="1"
     objecttolerance="10"
     gridtolerance="10"
     guidetolerance="10"
     inkscape:pageopacity="0"
     inkscape:pageshadow="2"
     inkscape:window-width="1280"
     inkscape:window-height="961"
     id="namedview22"
     showgrid="false"
     inkscape:zoom="0.34570313"
     inkscape:cx="341.33333"
     inkscape:cy="341.33333"
     inkscape:window-x="-8"
     inkscape:window-y="-8"
     inkscape:window-maximized="1"
     inkscape:current-layer="svg20" />
  <path
     d="m154.503906 229.65625 3.414063 27.402344 4.265625 34.132812c.535156 4.277344 4.171875 7.484375 8.484375 7.476563h102.398437c4.304688-.003907 7.933594-3.207031 8.464844-7.476563l4.265625-34.132812 3.414063-27.402344c20.25-3.644531 35.003906-21.234375 35.0625-41.808594.058593-20.578125-14.59375-38.253906-34.824219-42.011718 3.71875-26.417969-8.292969-52.578126-30.75-66.976563-22.457031-14.402344-51.242188-14.402344-73.699219 0-22.457031 14.398437-34.46875 40.558594-30.75 66.976563-20.246094 3.738281-34.921875 21.421874-34.863281 42.011718.058593 20.585938 14.835937 38.1875 35.101562 41.808594zm67.363282 51.945312h-43.664063l-2.136719-17.066406h91.597656l-2.132812 17.066406zm-77.832032-111.976562c4.789063-4.8125 11.304688-7.511719 18.097656-7.492188h.972657l.855469.050782c6.425781.476562 12.4375 3.359375 16.835937 8.074218 3.246094 3.300782 8.53125 3.410157 11.914063.25 3.382812-3.164062 3.621093-8.449218.542968-11.90625-5.804687-6.1875-13.324218-10.492187-21.597656-12.367187-.632812-3.195313-.964844-6.441406-.988281-9.699219 0-28.277344 22.921875-51.203125 51.199219-51.203125 28.277343 0 51.199218 22.925781 51.199218 51.203125-.035156 3.261719-.378906 6.515625-1.023437 9.71875-8.273438 1.867188-15.796875 6.171875-21.597657 12.355469-2.171874 2.210937-2.976562 5.421875-2.101562 8.394531.878906 2.972656 3.296875 5.238282 6.320312 5.914063 3.023438.675781 6.179688-.335938 8.238282-2.652344 4.398437-4.714844 10.410156-7.597656 16.835937-8.074219l.855469-.050781h1.007812c9.144532 0 17.59375 4.878906 22.167969 12.800781s4.574219 17.679688 0 25.601563c-4.574219 7.917969-13.023437 12.800781-22.167969 12.800781-.363281.046875-.722656.117188-1.078124.210938-.605469.058593-1.203126.179687-1.78125.367187-.457032.183594-.898438.40625-1.316407.664063-.511719.273437-.996093.601562-1.441406.972656-.371094.359375-.710937.746094-1.015625 1.164062-.796875 1.273438-1.414062 2.652344-1.832031 4.09375l-3.339844 26.648438h-95.863281l-3.335938-26.65625c-.097656-.371094-.21875-.730469-.367187-1.082032-.199219-1.089843-.6875-2.105468-1.414063-2.9375-.332031-.460937-.703125-.886718-1.121094-1.269531-.410156-.339843-.855468-.640625-1.320312-.898437-.9375-.628906-2.027344-1-3.15625-1.066406-.355469-.097657-.71875-.171876-1.085938-.222657-10.355468.003907-19.691406-6.234375-23.65625-15.804687-3.960937-9.566406-1.769531-20.582032 5.558594-27.902344zm0 0"
     id="path4" />
  <path
     d="m136.535156 358.398438h17.066406c4.710938 0 8.53125-3.820313 8.53125-8.53125 0-4.714844-3.820312-8.535157-8.53125-8.535157h-17.066406c-4.714844 0-8.535156 3.820313-8.535156 8.535157 0 4.710937 3.820312 8.53125 8.535156 8.53125zm0 0"
     id="path6" />
  <path
     d="m307.199219 341.332031h-119.464844c-4.714844 0-8.535156 3.820313-8.535156 8.535157 0 4.710937 3.820312 8.53125 8.535156 8.53125h119.464844c4.714843 0 8.535156-3.820313 8.535156-8.53125 0-4.714844-3.820313-8.535157-8.535156-8.535157zm0 0"
     id="path8" />
  <path
     d="m153.601562 409.601562h-17.066406c-4.714844 0-8.535156 3.820313-8.535156 8.53125 0 4.714844 3.820312 8.535157 8.535156 8.535157h17.066406c4.710938 0 8.53125-3.820313 8.53125-8.535157 0-4.710937-3.820312-8.53125-8.53125-8.53125zm0 0"
     id="path10" />
  <path
     d="m307.199219 409.601562h-119.464844c-4.714844 0-8.535156 3.820313-8.535156 8.53125 0 4.714844 3.820312 8.535157 8.535156 8.535157h119.464844c4.714843 0 8.535156-3.820313 8.535156-8.535157 0-4.710937-3.820313-8.53125-8.535156-8.53125zm0 0"
     id="path12" />
  <path
     d="m136.535156 392.535156h85.332032c4.710937 0 8.53125-3.824218 8.53125-8.535156s-3.820313-8.535156-8.53125-8.535156h-85.332032c-4.714844 0-8.535156 3.824218-8.535156 8.535156s3.820312 8.535156 8.535156 8.535156zm0 0"
     id="path14" />
  <path
     d="m307.199219 375.464844h-51.199219c-4.710938 0-8.535156 3.824218-8.535156 8.535156s3.824218 8.535156 8.535156 8.535156h51.199219c4.714843 0 8.535156-3.824218 8.535156-8.535156s-3.820313-8.535156-8.535156-8.535156zm0 0"
     id="path16" />
  <g
     id="g847"
     transform="translate(6.2731057,-17.066399)">
    <path
       id="path2"
       d="M 42.667969,512 H 332.80078 c 14.13672,0 25.59766,-11.46094 25.59766,-25.60156 V 59.734375 c 0,-14.140625 -11.46094,-25.601563 -25.59766,-25.601563 H 42.667969 C 19.113281,34.160156 0.0273438,53.246094 0,76.800781 V 469.33203 C 0.0273438,492.88672 19.113281,511.97266 42.667969,512 Z M 341.33203,59.734375 V 486.39844 c 0,4.71484 -3.82031,8.53515 -8.53125,8.53515 H 85.332031 v -25.60156 h 8.535157 c 4.710937,0 8.531252,-3.82031 8.531252,-8.53125 0,-4.71484 -3.820315,-8.53516 -8.531252,-8.53516 h -8.535157 v -17.0664 h 8.535157 c 4.710937,0 8.531252,-3.82031 8.531252,-8.53125 0,-4.71485 -3.820315,-8.53516 -8.531252,-8.53516 h -8.535157 v -17.0664 h 8.535157 c 4.710937,0 8.531252,-3.82032 8.531252,-8.53125 0,-4.71485 -3.820315,-8.53516 -8.531252,-8.53516 h -8.535157 v -17.06641 h 8.535157 c 4.710937,0 8.531252,-3.82031 8.531252,-8.53515 0,-4.71094 -3.820315,-8.53125 -8.531252,-8.53125 h -8.535157 v -17.06641 h 8.535157 c 4.710937,0 8.531252,-3.82031 8.531252,-8.53516 0,-4.71093 -3.820315,-8.53125 -8.531252,-8.53125 h -8.535157 v -17.0664 h 8.535157 c 4.710937,0 8.531252,-3.82031 8.531252,-8.53516 0,-4.71094 -3.820315,-8.53125 -8.531252,-8.53125 h -8.535157 v -17.0664 h 8.535157 c 4.710937,0 8.531252,-3.82422 8.531252,-8.53516 0,-4.71094 -3.820315,-8.53516 -8.531252,-8.53516 h -8.535157 v -17.0664 h 8.535157 c 4.710937,0 8.531252,-3.82032 8.531252,-8.53125 0,-4.71485 -3.820315,-8.53516 -8.531252,-8.53516 h -8.535157 v -17.06641 h 8.535157 c 4.710937,0 8.531252,-3.82031 8.531252,-8.53125 0,-4.71484 -3.820315,-8.53515 -8.531252,-8.53515 h -8.535157 v -17.06641 h 8.535157 c 4.710937,0 8.531252,-3.82031 8.531252,-8.53125 0,-4.71484 -3.820315,-8.53515 -8.531252,-8.53515 H 85.332031 V 128 h 8.535157 c 4.710937,0 8.531252,-3.82031 8.531252,-8.53516 0,-4.71093 -3.820315,-8.53125 -8.531252,-8.53125 H 85.332031 V 93.867188 h 8.535157 c 4.710937,0 8.531252,-3.820313 8.531252,-8.535157 0,-4.710937 -3.820315,-8.53125 -8.531252,-8.53125 H 85.332031 V 51.199219 H 332.80078 c 4.71094,0 8.53125,3.820312 8.53125,8.535156 z M 17.066406,76.800781 c 0,-14.140625 11.460938,-25.601562 25.601563,-25.601562 h 25.597656 v 25.601562 h -8.53125 c -4.714844,0 -8.535156,3.820313 -8.535156,8.53125 0,4.714844 3.820312,8.535157 8.535156,8.535157 h 8.53125 v 17.066402 h -8.53125 c -4.714844,0 -8.535156,3.82032 -8.535156,8.53125 0,4.71485 3.820312,8.53516 8.535156,8.53516 h 8.53125 v 17.06641 h -8.53125 c -4.714844,0 -8.535156,3.82031 -8.535156,8.53515 0,4.71094 3.820312,8.53125 8.535156,8.53125 h 8.53125 v 17.06641 h -8.53125 c -4.714844,0 -8.535156,3.82031 -8.535156,8.53515 0,4.71094 3.820312,8.53125 8.535156,8.53125 h 8.53125 v 17.06641 h -8.53125 c -4.714844,0 -8.535156,3.82031 -8.535156,8.53516 0,4.71093 3.820312,8.53125 8.535156,8.53125 h 8.53125 v 17.0664 h -8.53125 c -4.714844,0 -8.535156,3.82422 -8.535156,8.53516 0,4.71094 3.820312,8.53516 8.535156,8.53516 h 8.53125 v 17.0664 h -8.53125 c -4.714844,0 -8.535156,3.82032 -8.535156,8.53125 0,4.71485 3.820312,8.53516 8.535156,8.53516 h 8.53125 v 17.06641 h -8.53125 c -4.714844,0 -8.535156,3.82031 -8.535156,8.53125 0,4.71484 3.820312,8.53515 8.535156,8.53515 h 8.53125 v 17.06641 h -8.53125 c -4.714844,0 -8.535156,3.82031 -8.535156,8.53125 0,4.71484 3.820312,8.53515 8.535156,8.53515 h 8.53125 V 384 h -8.53125 c -4.714844,0 -8.535156,3.82031 -8.535156,8.53516 0,4.71093 3.820312,8.53125 8.535156,8.53125 h 8.53125 v 17.0664 h -8.53125 c -4.714844,0 -8.535156,3.82032 -8.535156,8.53516 0,4.71094 3.820312,8.53125 8.535156,8.53125 h 8.53125 v 17.06641 h -8.53125 c -4.714844,0 -8.535156,3.82031 -8.535156,8.53515 0,4.71094 3.820312,8.53125 8.535156,8.53125 h 8.53125 v 25.60156 H 42.667969 c -14.140625,0 -25.601563,-11.46093 -25.601563,-25.60156 z m 0,0"
       inkscape:connector-curvature="0" />
    <g
       id="g6"
       transform="matrix(0.75000002,0,0,0.75000002,376.40655,83.523927)">
      <g
         id="g4">
        <path
           id="path2-2"
           d="M 141.247,31.99 C 125.777,11.362 104.892,0.003 82.44,0.003 59.989,0.003 39.105,11.363 23.634,31.989 8.921,51.606 0.819,77.505 0.819,104.916 c 0,27.412 8.102,53.31 22.816,72.927 8.605,11.473 18.888,20.068 30.18,25.446 L 36.546,462.948 c -0.842,12.653 3.645,25.221 12.309,34.48 8.665,9.261 20.909,14.573 33.591,14.573 12.679,0 24.917,-5.309 33.579,-14.565 8.664,-9.26 13.151,-21.83 12.307,-34.486 L 111.063,203.294 c 11.294,-5.379 21.578,-13.974 30.184,-25.449 14.712,-19.617 22.816,-45.517 22.816,-72.927 0,-27.41 -8.102,-53.311 -22.816,-72.928 z M 98.874,481.389 c -4.3,4.596 -10.135,7.127 -16.429,7.127 -6.299,0 -12.138,-2.533 -16.442,-7.132 -4.302,-4.6 -6.442,-10.592 -6.025,-16.875 L 76.932,209.575 c 1.826,0.153 3.659,0.258 5.508,0.258 1.848,0 3.68,-0.106 5.505,-0.258 l 16.954,254.934 c 0.417,6.286 -1.721,12.281 -6.025,16.88 z M 82.44,186.346 c -4.207,0 -8.308,-0.645 -12.264,-1.839 -0.328,-0.121 -0.66,-0.232 -1,-0.324 -25.683,-8.431 -44.872,-40.759 -44.872,-79.266 0,-44.899 26.08,-81.429 58.136,-81.429 32.057,0 58.138,36.529 58.138,81.429 0,44.9 -26.08,81.429 -58.138,81.429 z"
           inkscape:connector-curvature="0" />
      </g>
    </g>
  </g>
</svg>
