<svg height="480pt" viewBox="0 -31 480 479" width="480pt" xmlns="http://www.w3.org/2000/svg"><path d="m144 240.5c-17.671875 0-32 14.328125-32 32s14.328125 32 32 32 32-14.328125 32-32c-.015625-17.664062-14.335938-31.984375-32-32zm0 48c-8.835938 0-16-7.164062-16-16s7.164062-16 16-16 16 7.164062 16 16c-.011719 8.832031-7.167969 15.988281-16 16zm0 0"/><path d="m80 232.5c17.671875 0 32-14.328125 32-32s-14.328125-32-32-32-32 14.328125-32 32c.015625 17.664062 14.335938 31.984375 32 32zm0-48c8.835938 0 16 7.164062 16 16s-7.164062 16-16 16-16-7.164062-16-16c.011719-8.832031 7.167969-15.988281 16-16zm0 0"/><path d="m208 168.5c-17.671875 0-32 14.328125-32 32s14.328125 32 32 32 32-14.328125 32-32c-.015625-17.664062-14.335938-31.984375-32-32zm0 48c-8.835938 0-16-7.164062-16-16s7.164062-16 16-16 16 7.164062 16 16c-.011719 8.832031-7.167969 15.988281-16 16zm0 0"/><path d="m80 312.5c-17.671875 0-32 14.328125-32 32s14.328125 32 32 32 32-14.328125 32-32c-.015625-17.664062-14.335938-31.984375-32-32zm0 48c-8.835938 0-16-7.164062-16-16s7.164062-16 16-16 16 7.164062 16 16c-.011719 8.832031-7.167969 15.988281-16 16zm0 0"/><path d="m208 312.5c-17.671875 0-32 14.328125-32 32s14.328125 32 32 32 32-14.328125 32-32c-.015625-17.664062-14.335938-31.984375-32-32zm0 48c-8.835938 0-16-7.164062-16-16s7.164062-16 16-16 16 7.164062 16 16c-.011719 8.832031-7.167969 15.988281-16 16zm0 0"/><path d="m336 112.5c-17.671875 0-32 14.328125-32 32s14.328125 32 32 32 32-14.328125 32-32c-.015625-17.664062-14.335938-31.984375-32-32zm0 48c-8.835938 0-16-7.164062-16-16s7.164062-16 16-16 16 7.164062 16 16c-.011719 8.832031-7.167969 15.988281-16 16zm0 0"/><path d="m272 40.5c-17.671875 0-32 14.328125-32 32s14.328125 32 32 32 32-14.328125 32-32c-.015625-17.664062-14.335938-31.984375-32-32zm0 48c-8.835938 0-16-7.164062-16-16s7.164062-16 16-16 16 7.164062 16 16c-.011719 8.832031-7.167969 15.988281-16 16zm0 0"/><path d="m400 184.5c-17.671875 0-32 14.328125-32 32s14.328125 32 32 32 32-14.328125 32-32c-.015625-17.664062-14.335938-31.984375-32-32zm0 48c-8.835938 0-16-7.164062-16-16s7.164062-16 16-16 16 7.164062 16 16c-.011719 8.832031-7.167969 15.988281-16 16zm0 0"/><path d="m96 48.5c0-2.121094-.839844-4.15625-2.34375-5.65625-1.5-1.503906-3.535156-2.34375-5.65625-2.34375-22.429688 0-40 28.109375-40 64 0 4.417969 3.582031 8 8 8s8-3.582031 8-8c0-28.289062 12.648438-48 24-48 2.121094 0 4.15625-.839844 5.65625-2.34375 1.503906-1.5 2.34375-3.535156 2.34375-5.65625zm0 0"/><path d="m96 104.5c2.121094 0 4.15625-.839844 5.65625-2.34375 1.503906-1.5 2.34375-3.535156 2.34375-5.65625.015625-17.664062 14.335938-31.984375 32-32 4.417969 0 8-3.582031 8-8s-3.582031-8-8-8c-26.496094.027344-47.972656 21.503906-48 48 0 2.121094.839844 4.15625 2.34375 5.65625 1.5 1.503906 3.535156 2.34375 5.65625 2.34375zm0 0"/><path d="m424 .5h-176c-30.914062.039062-55.960938 25.085938-56 56v72h-136c-30.914062.039062-55.9609375 25.085938-56 56v176c.0390625 30.914062 25.085938 55.960938 56 56h176c30.914062-.039062 55.960938-25.085938 56-56v-72h136c30.914062-.039062 55.960938-25.085938 56-56v-176c-.039062-30.914062-25.085938-55.960938-56-56zm-152 360c-.027344 22.082031-17.917969 39.972656-40 40h-176c-22.082031-.027344-39.972656-17.917969-40-40v-176c.027344-22.082031 17.917969-39.972656 40-40h176c22.082031.027344 39.972656 17.917969 40 40zm192-128c-.027344 22.082031-17.917969 39.972656-40 40h-136v-88c-.039062-30.914062-25.085938-55.960938-56-56h-24v-72c.027344-22.082031 17.917969-39.972656 40-40h176c22.082031.027344 39.972656 17.917969 40 40zm0 0"/></svg>