<?xml version="1.0" encoding="iso-8859-1"?>
<!-- Generator: Adobe Illustrator 19.0.0, SVG Export Plug-In . SVG Version: 6.00 Build 0)  -->
<svg version="1.1" id="Layer_1" xmlns="http://www.w3.org/2000/svg" xmlns:xlink="http://www.w3.org/1999/xlink" x="0px" y="0px"
	 viewBox="0 0 512 512" style="enable-background:new 0 0 512 512;" xml:space="preserve">
<g>
	<g>
		<path d="M434.448,286.498c-8.096-11.041-19.178-19.756-31.793-24.982c0.142-1.873,0.213-3.748,0.213-5.62
			c0-39.451-30.841-71.833-69.679-74.303c-3.533-37.791-35.43-67.466-74.13-67.466c-41.054,0-74.454,33.4-74.454,74.454
			c0,2.188,0.099,4.381,0.294,6.569c-28.78,7.626-50.491,32.049-54.635,61.645c-19.117,2.949-36.208,13.168-47.885,28.646
			C26.96,297.239,0,313.099,0,333.92c0,20.506,26.172,36.199,80.014,47.973c47.119,10.304,109.62,15.98,175.986,15.98
			s128.867-5.675,175.986-15.979C485.828,370.12,512,354.427,512,333.921C512,313.723,486.611,298.197,434.448,286.498z
			 M95.189,302.909c9.492-16.062,26.269-25.994,44.878-26.569l1.7-0.046c12.498,0,24.686,4.364,34.317,12.289
			c1.899,1.562,4.193,2.322,6.474,2.322c2.945,0,5.866-1.268,7.883-3.719c3.579-4.35,2.954-10.778-1.396-14.356
			c-10.885-8.955-24.135-14.603-38.044-16.349c3.99-19.841,18.931-35.983,38.473-41.423c4.764,12.495,12.855,23.604,23.486,31.995
			c1.872,1.477,4.1,2.193,6.311,2.193c3.015,0,6-1.33,8.013-3.881c3.49-4.421,2.735-10.835-1.687-14.325
			c-9.585-7.567-16.332-18.159-19.128-29.94c-0.009-0.042-0.012-0.084-0.022-0.124c-0.959-4.089-1.445-8.259-1.445-12.394
			c0-29.807,24.249-54.056,54.056-54.056c3.381,0,6.687,0.327,9.897,0.924c-2.488,21.27-20.608,37.833-42.535,37.833
			c-5.632,0-10.199,4.567-10.199,10.199c0,5.632,4.567,10.199,10.199,10.199c30.502,0,56.028-21.708,61.943-50.486
			c13.428,8.701,22.779,23.181,24.473,39.899c-33.599,7.181-58.877,37.089-58.877,72.801c0,5.632,4.567,10.199,10.199,10.199
			s10.199-4.567,10.199-10.199c0-28.32,21.895-51.606,49.644-53.861c0.013-0.001,0.026,0,0.04-0.001l4.372-0.194
			c4.943,0,9.726,0.68,14.278,1.928c-6.618,11.437-10.198,24.534-10.198,37.849c0,5.632,4.567,10.199,10.199,10.199
			s10.199-4.567,10.199-10.199c0-10.344,2.789-20.18,8.119-28.809c13.026,9.879,21.459,25.514,21.459,43.088
			c0,0.15-0.01,0.3-0.011,0.451c-2.701-0.295-5.422-0.451-8.148-0.451c-16.91,0-32.85,5.527-46.095,15.982
			c-4.422,3.49-5.177,9.903-1.687,14.325c2.013,2.551,4.998,3.882,8.013,3.881c2.212,0,4.441-0.716,6.311-2.193
			c9.611-7.586,21.181-11.595,33.458-11.595c4.356,0,8.691,0.519,12.88,1.542l1.535,0.416c13.561,3.743,25.388,12.907,32.448,25.142
			v0.001c2.558,4.431,2.835,9.687,0.763,14.422c-2.121,4.847-6.291,8.293-11.44,9.455c-30.946,6.988-82.87,15.317-154.497,15.317
			c-5.556,0-10.988-0.061-16.319-0.167v-37.57c0-5.632-4.567-10.199-10.199-10.199s-10.199,4.567-10.199,10.199v36.907
			c-49.93-2.282-88.444-8.856-113.644-14.546c-5.153-1.164-9.308-4.609-11.399-9.454C92.14,312.894,92.485,307.483,95.189,302.909z
			 M427.628,361.966c-45.731,10-106.684,15.508-171.628,15.508s-125.897-5.508-171.628-15.508
			c-52.221-11.42-63.973-24.398-63.973-28.046c0-3.413,10.037-14.63,52.16-25.269c-0.413,5.774,0.558,11.639,2.954,17.191
			c4.705,10.901,14.048,18.652,25.636,21.269c32.079,7.243,84.985,15.876,154.852,15.876c73.506,0,127.031-8.602,158.988-15.817
			c11.54-2.606,20.885-10.322,25.635-21.172c2.296-5.243,3.306-10.776,3.07-16.242c38.601,10.318,47.909,20.903,47.909,24.164
			C491.602,337.567,479.849,350.546,427.628,361.966z"/>
	</g>
</g>
<g>
</g>
<g>
</g>
<g>
</g>
<g>
</g>
<g>
</g>
<g>
</g>
<g>
</g>
<g>
</g>
<g>
</g>
<g>
</g>
<g>
</g>
<g>
</g>
<g>
</g>
<g>
</g>
<g>
</g>
</svg>
