<svg height="512pt" viewBox="0 0 512 512" width="512pt" xmlns="http://www.w3.org/2000/svg"><path d="m331.90625 31.78125c-13.324219 13.324219-16.503906 32.996094-9.570312 49.363281l-148.875 111.65625c-28.882813-20.226562-69.4375-17.886719-95.804688 8.480469l-10.59375 10.59375 84.75 84.75-120.03125 120.03125-31.78125 95.34375 95.34375-31.78125 120.03125-120.03125 84.75 84.75 10.59375-10.59375c26.363281-26.363281 28.710938-66.914062 8.480469-95.804688l111.65625-148.875c16.628906 7.046876 36.214843 3.582032 49.363281-9.570312l31.78125-31.78125-148.3125-148.3125zm-252.75 422.25-31.78125 10.589844 10.59375-31.78125 115.03125-115.027344 21.1875 21.1875zm219.167969-53.269531-187.085938-187.085938c16.351563-7.828125 37.066407-5.304687 51.167969 8.792969l127.125 127.125c14.085938 14.085938 16.628906 34.800781 8.792969 51.167969zm.179687-84.570313-102.695312-102.695312 145.285156-108.964844 66.375 66.375zm160.527344-157.285156c-5.839844 5.839844-15.339844 5.84375-21.183594.003906l-84.757812-84.757812c-5.835938-5.84375-5.835938-15.34375.003906-21.183594l10.59375-10.59375 105.9375 105.9375zm0 0"/></svg>