<?xml version="1.0" encoding="UTF-8" standalone="no"?>
<!-- Created with Inkscape (http://www.inkscape.org/) -->

<svg
   xmlns:dc="http://purl.org/dc/elements/1.1/"
   xmlns:cc="http://creativecommons.org/ns#"
   xmlns:rdf="http://www.w3.org/1999/02/22-rdf-syntax-ns#"
   xmlns:svg="http://www.w3.org/2000/svg"
   xmlns="http://www.w3.org/2000/svg"
   xmlns:sodipodi="http://sodipodi.sourceforge.net/DTD/sodipodi-0.dtd"
   xmlns:inkscape="http://www.inkscape.org/namespaces/inkscape"
   width="64"
   height="64"
   viewBox="0 0 16.933333 16.933334"
   version="1.1"
   id="svg864"
   sodipodi:docname="AddRecepie.svg"
   inkscape:export-filename="D:\Projects\VeletlenVacsora\Graphics\PNG\AddRecepie.png"
   inkscape:export-xdpi="96"
   inkscape:export-ydpi="96"
   inkscape:version="0.92.3 (2405546, 2018-03-11)">
  <defs
     id="defs858" />
  <sodipodi:namedview
     id="base"
     pagecolor="#ffffff"
     bordercolor="#666666"
     borderopacity="1.0"
     inkscape:pageopacity="0.0"
     inkscape:pageshadow="2"
     inkscape:zoom="5.6"
     inkscape:cx="6.6333488"
     inkscape:cy="27.011596"
     inkscape:document-units="mm"
     inkscape:current-layer="layer1"
     showgrid="false"
     units="px"
     inkscape:snap-page="false"
     inkscape:snap-bbox="true"
     inkscape:bbox-nodes="true"
     inkscape:snap-global="false"
     inkscape:window-width="1280"
     inkscape:window-height="961"
     inkscape:window-x="-8"
     inkscape:window-y="-8"
     inkscape:window-maximized="1" />
  <metadata
     id="metadata861">
    <rdf:RDF>
      <cc:Work
         rdf:about="">
        <dc:format>image/svg+xml</dc:format>
        <dc:type
           rdf:resource="http://purl.org/dc/dcmitype/StillImage" />
        <dc:title></dc:title>
      </cc:Work>
    </rdf:RDF>
  </metadata>
  <g
     inkscape:label="Layer 1"
     inkscape:groupmode="layer"
     id="layer1"
     transform="translate(0,-280.06665)">
    <g
       id="g1444"
       transform="matrix(0.82006074,0,0,0.82006074,1.555832,51.217615)">
      <path
         id="path4"
         d="m 2.5786097,291.93258 0.2506876,2.0121 0.3132176,2.50632 c 0.039292,0.31408 0.306336,0.54956 0.6229944,0.54898 h 7.5189467 c 0.316088,-2e-4 0.582552,-0.23547 0.621559,-0.54898 l 0.313221,-2.50632 0.250687,-2.0121 c 1.486927,-0.26762 2.570279,-1.55922 2.574582,-3.06993 0.0043,-1.51103 -1.071593,-2.80894 -2.557086,-3.08487 0.273064,-1.93982 -0.608939,-3.86072 -2.257921,-4.91797 -1.6489819,-1.05755 -3.7626293,-1.05755 -5.4116116,0 -1.6489824,1.05725 -2.5309836,2.97815 -2.2579203,4.91797 -1.4866364,0.27449 -2.56425601,1.57298 -2.559953260846,3.08487 C 0.00429876,290.37422 1.089391,291.66668 2.5774617,291.93258 Z m 4.9463747,3.81424 H 4.3188023 l -0.1568949,-1.25314 h 6.7258656 l -0.156603,1.25314 z m -5.7150776,-8.22224 c 0.3516513,-0.35338 0.8300833,-0.55157 1.3288811,-0.55014 h 0.071422 l 0.06282,0.003 c 0.471833,0.0349 0.9132638,0.24667 1.2362334,0.59286 0.238355,0.24238 0.6264369,0.25041 0.87483,0.0183 0.2483947,-0.23234 0.2658904,-0.62042 0.039875,-0.87426 -0.4262296,-0.45434 -0.9783745,-0.77042 -1.5858816,-0.9081 -0.046472,-0.23462 -0.070839,-0.47297 -0.07257,-0.7122 0,-2.07635 1.683115,-3.75976 3.7594751,-3.75976 2.0763574,0 3.7594722,1.68341 3.7594722,3.75976 -0.0026,0.23951 -0.02783,0.47843 -0.07514,0.71364 -0.607506,0.13709 -1.159941,0.45319 -1.5858821,0.90724 -0.1594824,0.16227 -0.2185622,0.39811 -0.1543058,0.61639 0.064533,0.21828 0.2420846,0.38465 0.4640902,0.43427 0.2220057,0.0497 0.4537627,-0.0247 0.6049227,-0.19476 0.322969,-0.34622 0.7644,-0.55789 1.236234,-0.59288 l 0.06282,-0.003 h 0.074 c 0.671468,0 1.291881,0.35824 1.627758,0.93993 0.335876,0.58168 0.335876,1.2982 0,1.87989 -0.335877,0.5814 -0.95629,0.93993 -1.627758,0.93993 -0.02668,0.003 -0.05306,0.009 -0.07917,0.0155 -0.04446,0.005 -0.08835,0.0137 -0.130796,0.0268 -0.03355,0.0138 -0.06597,0.0298 -0.09666,0.0489 -0.03758,0.02 -0.07313,0.0442 -0.105851,0.0714 -0.02725,0.0264 -0.0522,0.0548 -0.07457,0.0855 -0.05852,0.0935 -0.103832,0.19475 -0.134516,0.30061 l -0.245239,1.95673 H 4.0053242 l -0.2449505,-1.95732 c -0.0072,-0.0273 -0.016107,-0.0537 -0.026954,-0.0796 -0.014565,-0.0801 -0.050482,-0.15456 -0.1038255,-0.21571 -0.024384,-0.0338 -0.05163,-0.0652 -0.08232,-0.0933 -0.030125,-0.025 -0.06282,-0.047 -0.096953,-0.066 -0.068836,-0.0462 -0.1488583,-0.0734 -0.2317594,-0.0784 -0.026098,-0.007 -0.052778,-0.0126 -0.079733,-0.0171 -0.7603856,1.9e-4 -1.4459084,-0.4578 -1.7370397,-1.16054 -0.2908452,-0.70242 -0.1299404,-1.51129 0.4081583,-2.04882 z m 0,0"
         inkscape:connector-curvature="0"
         style="stroke-width:0.07342834" />
      <path
         transform="translate(19.465774,-0.70870536)"
         d="m -7.8007812,289.10156 c -0.9903915,0.0155 -1.8768199,0.92953 -1.8613282,1.91992 v 1.34766 h -1.3496096 c -0.999304,-0.0141 -1.917968,0.89122 -1.917969,1.89063 0,0.9994 0.918665,1.90475 1.917969,1.89062 h 1.3496096 V 297.5 c -0.014133,0.9993 0.8912205,1.91797 1.890625,1.91797 0.9994045,0 1.9047577,-0.91867 1.890625,-1.91797 v -1.34961 h 1.3515625 c 0.9993046,0.0141 1.9179688,-0.89122 1.9179688,-1.89062 0,-0.99941 -0.9186642,-1.90476 -1.9179688,-1.89063 h -1.3515625 v -1.34766 c 0.015801,-1.01009 -0.9098291,-1.93572 -1.9199218,-1.91992 z"
         id="path1431"
         style="color:#000000;font-style:normal;font-variant:normal;font-weight:normal;font-stretch:normal;font-size:medium;line-height:normal;font-family:sans-serif;font-variant-ligatures:normal;font-variant-position:normal;font-variant-caps:normal;font-variant-numeric:normal;font-variant-alternates:normal;font-feature-settings:normal;text-indent:0;text-align:start;text-decoration:none;text-decoration-line:none;text-decoration-style:solid;text-decoration-color:#000000;letter-spacing:normal;word-spacing:normal;text-transform:none;writing-mode:lr-tb;direction:ltr;text-orientation:mixed;dominant-baseline:auto;baseline-shift:baseline;text-anchor:start;white-space:normal;shape-padding:0;clip-rule:nonzero;display:inline;overflow:visible;visibility:visible;opacity:1;isolation:auto;mix-blend-mode:normal;color-interpolation:sRGB;color-interpolation-filters:linearRGB;solid-color:#000000;solid-opacity:1;vector-effect:none;fill:#ffffff;fill-opacity:1;fill-rule:nonzero;stroke:none;stroke-width:2;stroke-linecap:round;stroke-linejoin:miter;stroke-miterlimit:4;stroke-dasharray:none;stroke-dashoffset:0;stroke-opacity:1;color-rendering:auto;image-rendering:auto;shape-rendering:auto;text-rendering:auto;enable-background:accumulate"
         inkscape:original="M -7.7871094 289.99219 A 1.0001 1.0001 0 0 0 -8.7714844 291.00781 L -8.7714844 293.25977 L -11.023438 293.25977 A 1.0001 1.0001 0 1 0 -11.023438 295.25977 L -8.7714844 295.25977 L -8.7714844 297.51172 A 1.0001 1.0001 0 1 0 -6.7714844 297.51172 L -6.7714844 295.25977 L -4.5175781 295.25977 A 1.0001 1.0001 0 1 0 -4.5175781 293.25977 L -6.7714844 293.25977 L -6.7714844 291.00781 A 1.0001 1.0001 0 0 0 -7.7871094 289.99219 z "
         inkscape:radius="0.89159149"
         sodipodi:type="inkscape:offset" />
      <path
         inkscape:connector-curvature="0"
         id="path1419"
         d="m 11.677735,289.28338 a 1.0001,1.0001 0 0 0 -0.984375,1.01563 v 2.25195 H 8.441406 a 1.0001,1.0001 0 1 0 0,2 h 2.251954 v 2.25195 a 1.0001,1.0001 0 1 0 2,0 v -2.25195 h 2.253906 a 1.0001,1.0001 0 1 0 0,-2 H 12.69336 v -2.25195 a 1.0001,1.0001 0 0 0 -1.015625,-1.01563 z"
         style="color:#000000;font-style:normal;font-variant:normal;font-weight:normal;font-stretch:normal;font-size:medium;line-height:normal;font-family:sans-serif;font-variant-ligatures:normal;font-variant-position:normal;font-variant-caps:normal;font-variant-numeric:normal;font-variant-alternates:normal;font-feature-settings:normal;text-indent:0;text-align:start;text-decoration:none;text-decoration-line:none;text-decoration-style:solid;text-decoration-color:#000000;letter-spacing:normal;word-spacing:normal;text-transform:none;writing-mode:lr-tb;direction:ltr;text-orientation:mixed;dominant-baseline:auto;baseline-shift:baseline;text-anchor:start;white-space:normal;shape-padding:0;clip-rule:nonzero;display:inline;overflow:visible;visibility:visible;opacity:1;isolation:auto;mix-blend-mode:normal;color-interpolation:sRGB;color-interpolation-filters:linearRGB;solid-color:#000000;solid-opacity:1;vector-effect:none;fill:#000000;fill-opacity:1;fill-rule:nonzero;stroke:none;stroke-width:2;stroke-linecap:round;stroke-linejoin:miter;stroke-miterlimit:4;stroke-dasharray:none;stroke-dashoffset:0;stroke-opacity:1;color-rendering:auto;image-rendering:auto;shape-rendering:auto;text-rendering:auto;enable-background:accumulate" />
    </g>
  </g>
</svg>
